# xmcd CD database file
#
# Track frame offsets:
#	150
#	13090
#	29480
#
# Disc length: 644 seconds
#
# Revision: 0
# Processed by: cddbd v1.5.1PL2 Copyright (c) Steve Scherf et al.
# Submitted via: CDex 1.51
#
DISCID=1d028203
DTITLE=ブルバレット - ブルバレット
DYEAR=1900
DGENRE=Rock
TTITLE0=OptimisticGirl
TTITLE1=HAPPY BIRD
TTITLE2=サーチライト
EXTD=
EXTT0=
EXTT1=
EXTT2=
PLAYORDER=
